<?xml version="1.0" encoding="utf-8"?>
<!-- Generator: Adobe Illustrator 24.0.2, SVG Export Plug-In . SVG Version: 6.00 Build 0)  -->
<svg version="1.1" id="圖層_1" xmlns="http://www.w3.org/2000/svg" xmlns:xlink="http://www.w3.org/1999/xlink" x="0px" y="0px"
	 viewBox="0 0 595.3 841.9" style="enable-background:new 0 0 595.3 841.9;" xml:space="preserve">
<style type="text/css">
	.st0{fill:#FFFFFF;}
	.st1{fill:#0857A2;}
	.st2{fill:#FEF2EA;}
	.st3{fill:#FEF3F0;}
	.st4{fill:#FCE9E2;}
	.st5{fill:#FEF4F0;}
	.st6{fill:#FDF0EE;}
	.st7{fill:#FDECE5;}
	.st8{fill:#FDF0EA;}
	.st9{fill:#FDEDE9;}
	.st10{fill:#FEF3EA;}
	.st11{fill:#FEF2EC;}
	.st12{fill:#FEF2F0;}
	.st13{fill:#FDEEE9;}
	.st14{fill:#FEF4EE;}
	.st15{fill:#FEF2EE;}
</style>
<rect x="83" y="6" class="st0" width="400.6" height="795.5"/>
<path class="st1" d="M333.1,314C333.1,314,333.1,314,333.1,314c-1.6,1-2.9,2.1-3.9,3.3C330.2,316.1,331.5,315,333.1,314z"/>
<path class="st1" d="M265.7,519.6c0.4-0.5,0.8-1,1.3-1.5C266.5,518.6,266.1,519.1,265.7,519.6L265.7,519.6z"/>
<path class="st1" d="M185,747.9c0.7,0.4,1.3,0.9,2,1.3c1.6,0.1,3.1,0.2,4.7,0.3c-1.6-0.1-3.1-0.2-4.7-0.3
	C186.3,748.8,185.7,748.4,185,747.9z"/>
<path class="st1" d="M286.6,781c-0.3-0.3-0.7-0.6-1-0.9h0C286,780.4,286.3,780.7,286.6,781z"/>
<path class="st1" d="M339.1,464.9c1.1-1.4,2.5-2.7,4.2-3.9v0C341.5,462.2,340.1,463.5,339.1,464.9z"/>
<path class="st1" d="M336.6,469.3c-0.4,1-0.7,2.1-0.9,3.2C336,471.4,336.2,470.3,336.6,469.3z"/>
<path class="st1" d="M335.8,472.5c-0.2,1.1-0.3,2.2-0.4,3.3C335.4,474.7,335.6,473.5,335.8,472.5z"/>
<path class="st1" d="M169.6,752.6c-0.7,0.1-1.3,0.1-2,0.2c-2.9-0.8-5.7-2.1-8.6-2.5c2.9,0.3,5.7,1.7,8.6,2.5
	C168.3,752.7,168.9,752.7,169.6,752.6z"/>
<path class="st1" d="M196.8,758.4c-3.4,0.3-6.8,0.7-10.2,0.9C189.9,759.1,193.3,758.7,196.8,758.4
	C196.8,758.4,196.8,758.4,196.8,758.4z"/>
<path class="st1" d="M269,515.8c-0.4,0.5-0.8,1-1.3,1.5C268.2,516.8,268.6,516.3,269,515.8z"/>
<path class="st1" d="M284.1,527.3c0.3-2,1-3.3,2.1-4.3C285.1,524,284.4,525.3,284.1,527.3z"/>
<path class="st1" d="M181.7,749.4C181.7,749.4,181.7,749.4,181.7,749.4c1.1-0.5,2.2-1,3.3-1.5C183.9,748.4,182.8,748.9,181.7,749.4z
	"/>
<path class="st1" d="M364.8,602.7c-1,0.2-2,0.4-2.9,0.6l0,0C362.9,603.2,363.8,603,364.8,602.7z"/>
<path class="st1" d="M173.8,752.2c2.4-0.4,4.9-0.7,7.3-1.1c0,0,0,0,0,0C178.7,751.5,176.2,751.8,173.8,752.2L173.8,752.2z"/>
<path class="st1" d="M181.1,749.7L181.1,749.7c-1.6,0.6-3.3,1.1-4.9,1.7C177.8,750.8,179.5,750.3,181.1,749.7z"/>
<path class="st1" d="M104.1,727.4C104.2,727.3,104.2,727.1,104.1,727.4L104.1,727.4z"/>
<path class="st1" d="M104.1,727.4C104.1,727.4,104.1,727.4,104.1,727.4c-0.1,0-0.2,0.1-0.2,0.1c0.1,0,0.1,0,0.2,0.1
	C104.1,727.5,104.1,727.4,104.1,727.4z"/>
<path class="st1" d="M83.5,761.2c-0.2,0.9-0.4,1.7-0.6,2.6c23.4,15.3,49.9,22.1,81.2,23.1c-5.2,1.1-7.6,1.6-10,2.1
	c25.5-1.4,49.5-7.4,71.1-19.8c5.4-3.1,9.4-3.6,14.8-0.5c19.9,11.2,41.7,17.8,64.7,20.6c11.8,1.4,24,2.1,35.6-1.8
	c-4.3-1-8.9-2.7-12.6-1.7c-13.2,3.6-25.4-1.6-38-2.7c-1.1-0.1-2.1-1.1-3.1-2c-0.3-0.3-0.7-0.6-1-0.9h0c0.5,0,1,0.1,1.5,0.2
	c1.6,0.2,3.1,0.5,4.6,0.3c20.8-3.1,40.6-8.8,58.5-19.2c5.2-3,9.4-3.1,15-0.8c14.6,6,29.4,11.8,44.5,16.6c19.6,6.2,40,8.8,60.7,7.1
	c3.6-0.3,8.5,0.1,7.6-3.3c-18-0.8-35.1-1.5-52.3-2.3c0-0.6,0.1-1.2,0.1-1.8c11.4-1.2,22.9-2.5,34.3-3.7c-9.7-0.4-19.2,0.9-28.8,1.3
	c-9.6,0.4-19.5,1.5-30.2-4.9c8.6,0,15.1,0.6,21.3-0.1c15.2-1.9,30.5-3.8,45.4-7c5.6-1.2,10.4-5.6,15.5-8.5c-0.5-0.7-1.1-1.3-1.6-2
	c-42.2,12.2-88.4,5.7-101.4-7.3c12.6-4.9,26.4-9.1,38.9-15.6c7.6-3.9,13.3-5.2,21.6-2.1c12.5,4.6,25.8,5.8,39.2,3.8
	c-0.5-1-1.2-1.6-1.9-1.6c-15.1,0.5-29-2.6-42.3-9.5c-3.6-1.9-9.1-2.6-13-1.6c-11.3,2.9-20.4-2-32.6-4.9c9.2-2,16.1-2.9,22.5-5.2
	c6-2.2,11.1-1.6,17.3-0.6c14.7,2.5,29.8,3.6,44.7,5c1.8,0.2,3.8-0.9,5.7-1.4c-19.6-0.3-38.4-2.2-56.4-9.2c-1.8-0.7-4.6,0.2-6.7,1
	c-27.3,10.5-55,5.6-82.6,2.1c-7.6-0.9-12.2-4.9-10.3-13.2c0.8-3.7-0.6-7.7-0.7-11.6c-0.5-19.7-2.2-39.6-0.9-59.2
	c1.7-24.4,5.7-48.7,9.2-73c0.4-2.9,3.8-5.4,5.8-8c3.6,19.7,5.4,38,6.2,56.4c0.3,6.5-0.5,13.8-3.4,19.5c-2.3,4.4-4.2,7.4-1.8,12.1
	c1.3,2.4,2,5.3,2,8c-0.1,6.9-0.7,13.9-1.3,20.8c-0.6,7.2,2.5,11.6,8.2,10.9c0-0.2,0-0.4,0-0.6c-1.8-3.8-4.4-7.6-4.6-11.5
	c-0.3-6.3,1.2-12.6,2-19.4c4.2,2.1,8.5,4.4,15.2,7.8c-4.5,1.4-7.4,2.4-12.5,4c0,5,0,12,0,19.1c0,0.1,0.1,0.2,0.1,0.3
	c1.3-5.7,2.6-11.4,3.9-17c0.4,0,2.6,0.6,3.3-0.1c7.4-7.2,15.2-14.1,21.5-22.1c3.8-4.9,5.4-11.4-3-15.6c-1.6-0.8-3.1-3.1-3.2-4.8
	c-2-20.2-3.7-40.4-5.6-60.5c-0.4-4.4,1.8-5.4,5.8-7.6c6.1-3.3,14-8.8,15-14.3c2.7-14.4,4.5-29.7-8.9-41.7
	c14.6-1.3,28.9-1.9,42.8-4.2c6.4-1.1,12.6-4.9,17.8-8.7c2.4-1.8,4.3-7.1,3.2-9.6c-2.1-4.7-6.4-8.8-13.4-6.3
	c-0.1,8.8-0.7,11-9.4,11.6c-14.6,0.9-29.4,0.6-44-0.6c-3.9-0.3-9.9-5.5-10.5-9.1c-2.8-17.9-4.3-36-6-54c-3.2-33.3-6.3-66.7-9.5-100
	c-5.1-52.3-10.2-104.5-15.6-156.7c-4-38.3-8.2-76.6-12.9-114.9c-0.6-5.4-4.3-10.4-6.6-15.6c-1.5,0.1-2.9,0.1-4.4,0.2
	c-1.3,5.9-3.9,11.9-3.8,17.8c0.5,25.7,1.6,51.4,3,77c3.8,69.4,7.9,138.9,11.9,208.3c2.6,45.2,5.1,90.3,7.8,135.5
	c0.6,9.6-1.8,14.2-11.6,16.5c-11.1,2.6-22.4,4.4-33.8,5.5c-9,0.8-19.3,1.5-18.7-11.7c-11.8,3.8-16.6,12.1-9.9,16.3
	c8.4,5.2,8.6,12,8.4,19.6c-0.1,4.5-0.3,9,0.4,13.4c0.2,1.5,1.6,2.9,2.8,4.3c0.4,0.5,0.8,0.9,1.2,1.4l0,0c0.4-0.5,0.8-1,1.3-1.5
	c0.2-0.3,0.5-0.5,0.7-0.8c0.5-0.5,0.9-1,1.3-1.5c0.6-0.8,1-1.6,1.1-2.4c0.6-6,0.2-12.1,0.2-17.5c4.5,0,9.2,1.3,11.2-0.2
	c10.2-8.1,22.1-6.5,35.4-8c-1.4,4.6-1.7,7.7-3.3,10.1c-4.8,7.2-10.1,14.2-15.3,21.3c-3.9,1.4-9.1,1.2-12,3.9c-1.1,1-1.8,2.4-2.1,4.3
	c-0.1,0.5-0.1,1-0.1,1.6c-0.1,8.7,0.8,17.7-1.1,26.1c-2.6,11.3-5.9,23-11.8,33.1c-12.2,21.1-27,41-39.5,62
	c-10.8,18.3-29.6,29.1-44.7,43.4c-12.7,12-25,13.1-39.9,3.5c-4.4-2.8-7.7-3.2-12.3-1c-15.2,7-31.2,10.4-48.3,8.1
	c-0.9-0.1-1.8,0.3-2.7,0.4c0,0.7,0,1.4,0,2.1c6.1,0.8,12.5,2.9,18.3,1.9c11.2-1.9,22-5.8,33-8.6c2.6-0.7,5.9-1.5,8.2-0.7
	c8.2,3,16.1,6.7,23.7,9.9c-6.9,4.9-9.9,5.1-30,2.6c6.8,1.2,13.5,2.3,20.3,3.5c0.1,0.5,0.2,1,0.3,1.5c-4.9,1.2-9.7,2.5-14.3,3.6
	c1.1,0.3,2.4,0.6,3.6,1c-0.1,0.6-0.1,1.2-0.2,1.9c-5.5,0-10.9,0-17.3,0c3.5,1.2,6.1,2.2,9.4,3.4c-5.4,2.1-10,4.8-14.9,5.4
	c-5.5,0.6-11.4-0.5-17.1-1.3c-1.8-0.2-3.3-1.7-5-2.6c0.8-0.2,1.5-0.5,2.3-0.7c-6.8-1.7-13.5-3.4-20.7-5.2
	c13,17.5,68.2,25.7,92.2,15.2c-14.8,0-31.4,0-47.9,0c-0.2-0.7-0.4-1.5-0.6-2.2c30.1-13.6,57-31,77.5-53.5c2.9,4.3,4.6,10.2,8.3,11.5
	c10.6,3.8,15.5-5.2,22-10.7c-9.1,15.8-13.2,34.3-29.8,45.9c-0.6,0.4-1.4,1.2-1.5,1.8c-0.9,7.8-1,7.6-6.5,10.5
	c-4.1,2.1-7.9,4.7-11.9,7c0.7,0.4,1.3,0.9,2,1.3c1.6,0.1,3.1,0.2,4.7,0.3c5-4.3,11.2-7.9,14.6-13.1c10.4-15.6,19.8-31.9,29.5-47.9
	c1.5-2.6,2.7-5.3,4.3-8.4c1.8,15.5-12.6,30.3-0.9,46.2c0-7.4-0.8-13.7,0.2-19.8c2.2-14.2,5.3-28.3,9.6-42.4c1.3,12,2.5,24,3.8,36.1
	c0.6,0,1.2-0.1,1.8-0.1c-0.9-14.6-0.7-29.3-2.8-43.7c-2.3-16,0.7-30.4,9.1-44.3c7.6-12.5,14.8-25.3,23.3-39.9c0,12.5,0,23.1,0,33.6
	c0.7,0,1.4,0,2.1,0c0-18.6,0-37.1,0-55.7c0.8-0.2,1.7-0.3,2.5-0.5c0.8,2.8,1.7,5.6,2.9,9.6c0.3-3.5,0.5-5.9,0.8-8.8
	c10,45,19.9,89.3,29.8,133.6c3.3,14.8,0.4,24.2-9.3,33c-0.9-14.1-1.9-29.2-2.8-44.3c-1.1,0.1-2.1,0.1-3.2,0.2c1,6.7,3,13.5,2.8,20.1
	c-0.2,6.6-2.5,13.2-5.2,19.9c2.9-16.3-4.3-30-11.4-43.8c-3.5-6.7-4.9-14.2-9.2-21c2.6,8.4,3.9,17.5,8.2,25.1
	c9.5,16.8,10.5,34,5.5,52c1.2,0.3,2.2,1,2.8,0.7c13.1-5.2,24.8-0.4,37.3,3.1c16.6,4.7,33.9,7.2,48.2,10.1c-7.6,0-18.4,0-29.1,0
	c0,0.5-0.1,1-0.1,1.5c4.4,0.3,8.9,0.6,14.3,0.9c-11.3,1.7-21.7,3.3-32,4.8c0.1,0.7,0.1,1.3,0.2,2c5.4-0.5,10.9-0.7,16.3-1.5
	c11-1.7,20.8-1,31.1,4.7C405.2,762,426.8,762,448,762c2.4,0,4.8,0,7.4,1.8c-7.9,0.6-15.9,1.9-23.8,1.8c-8.4-0.1-16.7-1.4-27.8-2.5
	c5.9,1.8,9.2,2.8,12.5,3.8c0,0.4-0.1,0.8-0.1,1.3c-4.1-0.5-8.1-1.1-12.2-1.4c-4.6-0.3-9.4,0.4-13.9-0.4c-4.3-0.8-8.5-2.8-12.5-4.7
	c-11.8-5.5-23.8-7.4-37.4-5.6c-31.1,4.1-62,1.8-92.2-6.5c10.8,2.8,21.5,7.5,32.5,8.1c22.2,1.3,44.5,0.4,66.9,1.3
	c-19.7,5-39.5,8-60,4.5c4.8,1,9.5,2.4,14.4,2.8c6.8,0.5,13.6,0.1,20.4,2.1c-12.7,0-25.4,0-38.2,0c0,0.6,0,1.2,0,1.8
	c12,0,24,0,36.1,0c0.1,0.5,0.1,1,0.2,1.5c-3.3,0.5-6.5,1.3-9.8,1.6c-9.3,0.8-18.7,1.3-28,2.3c-2.7,0.3-5.1,1.9-7.7,2.9
	c-12.6-4.9-25.2-9.8-37.7-14.7c0.2-0.5,0.3-0.9,0.5-1.4c1.9,0.2,3.7,0.5,5.6,0.7c0-0.7,0-1.4,0-2.1c-4,0.2-9-0.9-11.7,0.9
	c-8.9,6-18,4.1-27.6,2.8c1.2-1.3,2.1-2.3,3-3.3c-3.7,0.7-7.4,1.4-12.5,2.3c1.2-2.5,1.8-3.8,2.4-5.1c-3.4,0.3-6.8,0.7-10.2,0.9
	c-1.2,0.1-2.4,0.1-3.6,0.2c-0.5,0-1-2.7-1.5-4.1l-0.2,0.2l0.3-0.7l0.8,0c-0.4-0.6-0.8-1.2-1.2-1.9c-1.1,0.2-2.1,0.3-3.6,0.6
	c1.3,0.7,2.2,1.2,3.2,1.7c-4.4-0.4-8.8-0.8-13.2-1.2c-0.1,0-0.4-0.4-0.4-0.6c0-0.3,0.2-0.5,0.4-0.8c-2.9-0.8-5.7-2.1-8.6-2.5
	c-0.4,0-0.8-0.1-1.2-0.1c-8.1,0-16.3,1.1-24.4,1.1c-9.4-0.1-18.7-1-28.1-1.5c0,0.6-0.1,1.1-0.1,1.7c12.3,0.7,24.7,1.3,37,2
	c0,0.7,0,1.3,0.1,2c-11.3,0.5-22.5,1-33.8,1.6c0,0.2,0,0.5,0,0.7c8.2,0,16.3,0,24.5,0c-8.1,2.9-16.2,5.1-24.5,5.5
	C100.2,763.6,91.8,761.9,83.5,761.2z M223.5,688.1c-3,1.7-9.5,2.1-11.8,0.3c-4.4-3.4,0.5-6.3,3-9.4c10.7-13,21-26.4,31.4-39.6
	C249.6,656.4,239.8,678.8,223.5,688.1z M374.6,618.1c-1.4,1-3,2.1-5.2,3.6c2.2-0.2,3.9-0.4,8.5-0.9c-5.2,6.8-9.2,12-13.2,17.3
	c-0.8-0.3-1.7-0.6-2.5-0.9c-0.7-2.2-1.4-4.4-2.3-7.4c-0.4,3.4-0.7,6.1-1,9c-17.1-5.2-19.3-11.9-9.6-28.1c5.8-0.5,11.4-1,17.4-1.6
	C369,611.8,371.6,614.7,374.6,618.1z M362.7,595.1c-0.3,2.7-0.5,5.5-0.8,8.2c0.9-0.2,1.9-0.4,2.9-0.6c1-0.2,2.1-0.5,3.5-0.7
	c-4.2,5.9-15.5,8.5-19.6,4.9c-0.6-0.5,1-3.2,1.5-4.8c-2.1-19.3-4.2-38.5-6.4-58.3c6.1,1.8,11.1,3.3,17.5,5.3
	c0.5,7.5,1.3,16.8,1.6,26.1c0.1,1.9-2,3.7-3.1,5.6C367.5,584.4,364.8,589.8,362.7,595.1z M368.8,471.3c9.6,0,18.6,0,27.7,0
	c0,0.3,0,0.6,0.1,0.9c-1.3,0.3-2.7,0.6-4,1c0.1,0.5,0.1,1.1,0.2,1.6c9.8-0.9,19.7-1.4,29.3-3.1c3.4-0.6,6.1-4.2,9.3-6
	c1.8-1,4.1-1.3,6.4-0.9c-9.3,11.5-38.4,17.1-69,14.4C368.8,476.1,368.8,473.5,368.8,471.3z M353.7,470.3c1,3.6,3,9.3,1.2,10.7
	c-3.8,3.2-9.6,4.2-15.4,6.4c-2.3-7.9-3.9-13.7,1.2-19.5c1.4-1.6,1.7-3.9,2.3-6.1c0.1-0.3,0.2-0.6,0.3-0.9c-1.8,1.2-3.2,2.5-4.2,3.9
	c-1.1,1.4-1.9,2.9-2.4,4.4c-0.4,1-0.7,2.1-0.9,3.2c-0.2,1.1-0.3,2.2-0.4,3.3c-0.2,3.4,0,6.9,0.1,10.4c-0.9,0-1.7,0-2.6-0.1
	c-0.6-3-1.1-5.9-2.1-10.8c-0.4,4.6-0.6,7.3-0.9,10c-1.5-5.6-3.8-10.6,1.8-16.1c4.7-4.7,6.4-11.9,9.5-18c0.7-1.3,2-2.3,4-4.5
	c5.8,12.3,19.5,20.4,14.8,37.3c-5.3-6.9,0.5-17.3-10.2-19.8C351.2,466.2,353.1,468.1,353.7,470.3z M308.7,32.8
	c1.7-0.1,3.4-0.2,5.1-0.3c17.4,141,29.2,282.6,45,423.9c-8.1-4-9.8-7-11.1-19.3c-1.3,1.1-2.8,2.3-4.2,3.6c-1.3-1.7-2.6-3.5-3.1-4.2
	c-1.4,6.4-3.2,14.1-4.9,21.8c-1.4-0.1-2.7-0.2-4.1-0.4C323.8,316.2,316.2,174.5,308.7,32.8z M280.4,492.6c-3.1-0.2-6.1-0.4-11-0.8
	c-0.7,7.7-1.4,16-2.2,24.2c-0.8-0.1-1.6-0.1-2.4-0.2c-0.6-8.9-1.1-17.9-1.7-27.3c6.2,0.6,11.8,1.1,17.5,1.7
	C280.5,491,280.4,491.8,280.4,492.6z M251.8,478.3c3.8-1.4,6.9-3.2,7.4-2.7c13.1,12.3,28,6,42.4,3.5c6.9-1.2,13.7-3.2,22-5.1
	c0.4,3.3,0.8,5.9,1.3,10C300.7,484,276.9,491.6,251.8,478.3z M315.2,501.9c7.3-12.2,7.2-12,21.9-8.3c2.4,0.6,6.5-0.8,8.3-2.6
	c8.3-8.3,17.8-3.7,26.8-2.5c1.4,0.2,3.1,2.8,3.2,4.3c0.1,0.9-2.7,2-3,2.2c2.9,1.9,6.5,4.2,10.1,6.6c-2,1.5-4,3.1-6,4.6
	c3.8,1.6,9.2,3.8,3.5,9.9c-0.4,0.4-0.8,0.8-1.3,1.2c12.7,11-9.9,9.8-7.3,17.6c0.1,0.2-3.6,2.1-5.6,2.2c-10.4,0.2-20.7,0.1-30.5,0.1
	c-2.3-11.8-4.5-22.7-6.8-34.5c-6.9,2.7-12.3,4.8-19.3,7.6C312.1,506.4,313.8,504.2,315.2,501.9z M330.9,536.2
	c-1.1,0.2-2.3,0.3-3.4,0.5c-0.6-3.3-1.1-6.7-1.8-10c-1-4.8-2.3-9.5-3.1-14.3c-0.2-1.3,0.6-2.9,1-4.3c1.1,0.1,2.2,0.2,3.2,0.2
	C328.2,517.6,329.6,526.9,330.9,536.2z M315.9,645.1c-3-14.7-5.9-28.5-8.8-42.3c-4.1-19.7-8.4-39.3-12.4-58.9
	c-0.8-3.8-0.9-7.7-1.1-11.6c-0.1-2.2,0.1-2,4.5-2.8c1.1-0.2,2.8-2,2.6-2.6c-0.6-1.6-2-3-1.2-5.3c-0.4-0.8-0.8-1.5-1.2-2.3
	c-0.1,0-0.1,0.1-0.2,0.1c0,0,0.1-0.1,0.2-0.2c0,0,0,0,0,0c11.9-7,16-5.8,20.9,6.8c4,10.3,7.2,20.9,10.7,31.4c-1,0.3-2.1,0.6-3.1,1
	c-3.1-9.1-6.1-18.3-9.2-27.4c-0.9,0.1-1.7,0.2-2.6,0.3c8.8,20.3,11,40.6-1,60.8c0.9,0.1,1.8,0.1,2.7,0.2c2.3-5.2,4.5-10.3,6.8-15.5
	c0.4,0.1,0.8,0.2,1.3,0.4C321.8,599.4,319,621.6,315.9,645.1z M377.3,725.5c-1.5-0.3-2.8-0.5-3.8-0.5c-2.9,0-3.8,1.5-3.7,5.2
	c0,0,0,0,0,0c0.4,0,0.8,0,1.2,0.1c-0.4,0.1-0.8,0.1-1.2,0.2c0-0.1,0-0.2,0-0.3c-1.9,0.7-4,2.2-5.6,1.9c-7.5-1.5-14.8-3.4-23-5.4
	c4-0.8,7.4-1.5,10.9-2.3c-11.5-1.5-23-3-36.9-4.8c3.8-4.2,5.8-6.4,7.8-8.6c0.3-1.8,0.6-3.5,0.9-5.1c10.2,2.4,19.8,4.6,29.3,6.8
	c0,0.5,0,1.1,0,1.6c-4.9-0.4-9.8-0.8-14.7-1.2c-0.4,7-6.5,0.8-9.7,4.8c4.6,0.9,8.9,2.9,12.7,2.2c10-1.7,19.7-4.6,29.6-6.9
	c2.5-0.6,5.4-1.8,7.6-1.2c14.1,4.1,28.1,8.7,42.8,13.4c-8-0.8-15.7-1.5-23.3-2.2c5.3,1.7,10.7,3.4,16,5.1c-0.1,0.7-0.2,1.3-0.3,2
	C401.6,728.8,389.3,727.9,377.3,725.5z M135.3,761.7c13-7.3,25-6.2,38.5-1.3c12.5,4.6,26,7,39,11.2c-11.5,4.2-23,1.2-34.4-1.6
	c7.2,2.2,14.5,4.5,21.7,6.7c-0.1,0.8-0.1,1.6-0.2,2.3c-11.4-1.3-22.7-2.5-34.1-3.8c6.5,2,13,4.1,20,6.3c-15.6,0-31.1,0-47.6,0
	c1.6-1.9,2.3-2.7,3-3.5c-6.6,0-13.1,0-19.7,0c0-0.8,0.1-1.5,0.1-2.3c5.4-1.5,10.7-3,16.1-4.5c-10.6,0.9-21.3,5.1-33.5-1.6
	c4.2-0.8,6.9-1.1,9.6-1.8C121.1,766,129.1,765.2,135.3,761.7z"/>
<path class="st1" d="M482.7,793c-21.3-0.9-42.6-1.7-66.2-2.7c3.7,1.1,5.1,1.5,6.5,1.9c-0.1,0.3-0.2,0.6-0.2,0.8
	c-11-1.1-22-2.1-33-3.2c-0.1,0.4-0.1,0.7-0.2,1.1c1.7,0.4,3.5,0.7,5.2,1.1c-4,0.8-7.9,0.3-11.7,0c-10.1-0.7-20.5-3-30.3-1.5
	c-14.4,2.2-28.7,3-43,2.4c-6.3-0.3-12.6-0.9-19-1.8c-1.6-0.2-3.2-0.5-4.7-0.8c-3.2-0.5-6.3-1.2-9.5-1.9c-4.2,0.6-8.4,1.2-12.7,1.6
	c-1.4,0.1-3-0.7-4.4-0.5c-2.1,0.4-4.8,2.4-6.2,1.8c-9.8-4.7-18.6-0.6-28.1,1.1c-10.5,1.9-21.7,0.4-32,0.4
	c9.2-3.9,18.7-8.1,28.3-12.2c-20.4,7.4-41.1,13.2-63.3,12.3c-10-0.4-19.9-1.3-29.8-1.5c-9.5-0.2-19.1-0.1-28.7,0.2
	c-5.5,0.2-10.9,1-16.4,1.5c0.1,0.8,0.2,1.5,0.3,2.3c133,0,266,0,399,0C482.6,794.6,482.7,793.8,482.7,793z"/>
<path class="st1" d="M353.8,700.5c1.3,0,2.6,0,3.9,0c7-10.1-1.7-19.5-3.9-29.2C353.8,681,353.8,690.7,353.8,700.5z"/>
<path class="st1" d="M166.2,745.5c-15.8,0-31.5,0-47.3,0c-0.1,0.3-0.2,0.7-0.3,1c15.9,0,31.7,0,47.6,0
	C166.2,746.1,166.2,745.8,166.2,745.5z"/>
<path class="st1" d="M263.8,554.8c6.7-6.6,4.3-12.6,0-19.8C263.8,542.5,263.8,548.7,263.8,554.8z"/>
<path class="st1" d="M434.9,788.7c15.3,0,30.5,0,45.8,0c0-0.3,0-0.7-0.1-1c-15.2,0-30.3,0-45.5,0C435.1,788,435,788.4,434.9,788.7z"
	/>
<path class="st1" d="M173.8,752.2C173.8,752.2,173.8,752.2,173.8,752.2c2.4-0.4,4.9-0.7,7.3-1.1c0-0.5,0-0.9,0-1.4
	c-1.6,0.6-3.3,1.1-4.9,1.7C175.4,751.6,174.6,751.9,173.8,752.2z"/>
<path class="st1" d="M185,747.9c-1.1,0.5-2.2,1-3.3,1.5c1.7,0,3.4,0,5.1,0.1c-1.8,0.6-3.6,1.2-5.5,1.8c0,0.5,0,1.1,0,1.6
	c1.1,0.6,2.2,1.2,3.3,1.7c2.3-1.7,4.7-3.4,7-5.1c-1.6-0.1-3.1-0.2-4.7-0.3C186.3,748.8,185.7,748.4,185,747.9z"/>
<path class="st2" d="M335.4,458.3c1.7-7.7,3.4-15.3,4.9-21.8c0.6,0.8,1.8,2.5,3.1,4.2c1.5-1.3,2.9-2.5,4.2-3.6
	c1.3,12.3,3,15.3,11.1,19.3C343,315,331.2,173.5,313.8,32.5c-1.7,0.1-3.4,0.2-5.1,0.3c7.6,141.7,15.1,283.4,22.7,425.1
	C332.7,458,334.1,458.2,335.4,458.3z M333.3,267.9c4.7,54.2,9.5,108.4,14.2,162.6c-0.8,0.1-1.6,0.1-2.4,0.2
	c-4.6-54.1-9.2-108.2-13.9-162.3C331.9,268.3,332.6,268.1,333.3,267.9z M322.5,184.3c-1.1-16-2.3-32-3.4-48.1c0.5-0.1,1-0.2,1.6-0.2
	c1.3,16.1,2.5,32.1,3.8,48.2C323.8,184.2,323.1,184.2,322.5,184.3z M329.6,275.1c3,41.9,6.1,83.8,9.1,125.6
	c-0.9,0.1-1.7,0.1-2.6,0.2c-2.8-42-5.7-84-8.5-126C328.3,274.9,328.9,275,329.6,275.1z"/>
<path class="st3" d="M335.7,537.1c9.8,0,20.1,0.1,30.5-0.1c2,0,5.6-2,5.6-2.2c-2.6-7.7,20-6.6,7.3-17.6c0.4-0.4,0.9-0.8,1.3-1.2
	c5.7-6.1,0.3-8.3-3.5-9.9c2-1.5,4-3.1,6-4.6c-3.6-2.4-7.3-4.7-10.1-6.6c0.3-0.2,3-1.3,3-2.2c-0.1-1.6-1.9-4.2-3.2-4.3
	c-9.1-1.2-18.5-5.7-26.8,2.5c-1.8,1.8-5.9,3.2-8.3,2.6c-14.7-3.7-14.7-3.9-21.9,8.3c-1.4,2.3-3.1,4.5-5.6,8.3
	c7-2.8,12.4-4.9,19.3-7.6C331.2,514.4,333.3,525.2,335.7,537.1z"/>
<path class="st4" d="M323.5,576.7c-2.3,5.2-4.5,10.3-6.8,15.5c-0.9-0.1-1.8-0.1-2.7-0.2c12-20.2,9.9-40.5,1-60.8
	c0.9-0.1,1.7-0.2,2.6-0.3c3.1,9.1,6.1,18.3,9.2,27.4c1-0.3,2.1-0.6,3.1-1c-3.5-10.5-6.7-21.1-10.7-31.4c-4.9-12.6-9-13.8-20.9-6.8
	c0.4,0.7,0.8,1.5,1.2,2.3c-0.8,2.3,0.6,3.7,1.2,5.3c0.2,0.6-1.5,2.4-2.6,2.6c-4.3,0.8-4.6,0.6-4.5,2.8c0.2,3.9,0.3,7.8,1.1,11.6
	c4,19.7,8.3,39.3,12.4,58.9c2.9,13.8,5.7,27.6,8.8,42.3c3-23.4,5.9-45.7,8.8-68C324.3,577,323.9,576.9,323.5,576.7z"/>
<path class="st1" d="M298.1,519.2c0.1,0,0.1-0.1,0.2-0.1c0,0,0,0,0,0C298.2,519.1,298.1,519.2,298.1,519.2z"/>
<path class="st5" d="M214.8,679c-2.6,3.1-7.4,6-3,9.4c2.3,1.8,8.7,1.4,11.8-0.3c16.3-9.2,26.1-31.7,22.6-48.7
	C235.8,652.6,225.5,665.9,214.8,679z"/>
<path class="st6" d="M349.2,610.6c-9.7,16.2-7.5,22.9,9.6,28.1c0.3-2.8,0.6-5.6,1-9c0.9,3,1.6,5.2,2.3,7.4c0.8,0.3,1.7,0.6,2.5,0.9
	c4-5.3,8-10.5,13.2-17.3c-4.6,0.5-6.3,0.6-8.5,0.9c2.2-1.5,3.7-2.6,5.2-3.6c-3-3.4-5.6-6.3-7.9-9
	C360.6,609.6,354.9,610.1,349.2,610.6z"/>
<path class="st7" d="M323.6,474c-8.3,2-15.1,3.9-22,5.1c-14.4,2.4-29.3,8.8-42.4-3.5c-0.5-0.5-3.6,1.3-7.4,2.7
	c25.1,13.3,49,5.8,73.1,5.7C324.4,479.9,324,477.3,323.6,474z"/>
<path class="st8" d="M437.8,464.8c-2.3-0.4-4.6-0.1-6.4,0.9c-3.3,1.8-5.9,5.4-9.3,6c-9.7,1.6-19.5,2.1-29.3,3.1
	c-0.1-0.5-0.1-1.1-0.2-1.6c1.3-0.3,2.7-0.6,4-1c0-0.3,0-0.6-0.1-0.9c-9.1,0-18.1,0-27.7,0c0,2.1,0,4.8,0,7.9
	C399.5,482,428.5,476.3,437.8,464.8z"/>
<path class="st9" d="M414.2,728.3c-5.3-1.7-10.7-3.4-16-5.1c7.6,0.7,15.3,1.5,23.3,2.2c-14.8-4.7-28.7-9.2-42.8-13.4
	c-2.2-0.6-5.1,0.6-7.6,1.2c-9.9,2.3-19.6,5.2-29.6,6.9c-3.8,0.6-8.2-1.4-12.7-2.2c3.2-4,9.2,2.1,9.7-4.8c4.9,0.4,9.8,0.8,14.7,1.2
	c0-0.5,0-1.1,0-1.6c-9.5-2.2-19.1-4.4-29.3-6.8c-0.3,1.6-0.6,3.4-0.9,5.1c-2,2.2-3.9,4.3-7.8,8.6c13.9,1.8,25.4,3.3,36.9,4.8
	c-3.5,0.7-6.9,1.4-10.9,2.3c8.2,2,15.5,4,23,5.4c1.7,0.3,3.8-1.2,5.6-1.9c-0.1-3.7,0.8-5.1,3.7-5.2c1,0,2.2,0.2,3.8,0.5
	c12,2.4,24.4,3.3,36.6,4.8C414,729.6,414.1,728.9,414.2,728.3z"/>
<path class="st1" d="M369.8,730.4c0.4-0.1,0.8-0.1,1.2-0.2c-0.4,0-0.8,0-1.2-0.1c0,0,0,0,0,0C369.8,730.3,369.8,730.3,369.8,730.4z"
	/>
<path class="st10" d="M360.1,483.9c4.7-16.9-9-25-14.8-37.3c-2,2.2-3.3,3.2-4,4.5c-3.2,6.1-4.8,13.3-9.5,18
	c-5.6,5.6-3.3,10.6-1.8,16.1c0.2-2.7,0.5-5.4,0.9-10c0.9,4.9,1.5,7.8,2.1,10.8c0.9,0,1.7,0,2.6,0.1c-0.1-3.5-0.3-7-0.1-10.4
	c0.1-1.1,0.2-2.2,0.4-3.3c0.2-1.1,0.5-2.2,0.9-3.2c0.6-1.5,1.4-3,2.4-4.4c1.1-1.4,2.5-2.7,4.2-3.9v0c-0.1,0.3-0.2,0.6-0.3,0.9
	c-0.6,2.1-1,4.5-2.3,6.1c-5.1,5.8-3.5,11.6-1.2,19.5c5.7-2.2,11.6-3.3,15.4-6.4c1.7-1.4-0.3-7.1-1.2-10.7c-0.6-2.2-2.4-4.1-3.7-6.2
	C360.6,466.6,354.9,477,360.1,483.9z"/>
<path class="st11" d="M360.5,644c-6.6-3.4-11-5.6-15.2-7.8c-0.8,6.8-2.3,13.1-2,19.4c0.2,3.9,2.9,7.6,4.6,11.5c0-7.1,0-14,0-19.1
	C353.1,646.4,356,645.4,360.5,644z"/>
<path class="st12" d="M264.8,515.8c0.8,0.1,1.6,0.1,2.4,0.2c0.7-8.2,1.5-16.5,2.2-24.2c4.9,0.4,8,0.6,11,0.8
	c0.1-0.8,0.1-1.6,0.2-2.3c-5.7-0.5-11.3-1.1-17.5-1.7C263.7,497.9,264.2,506.9,264.8,515.8z"/>
<path class="st13" d="M323.6,508c-0.4,1.4-1.2,3-1,4.3c0.8,4.8,2.1,9.5,3.1,14.3c0.7,3.3,1.2,6.7,1.8,10c1.1-0.2,2.3-0.3,3.4-0.5
	c-1.4-9.3-2.7-18.6-4.1-27.9C325.7,508.2,324.7,508.1,323.6,508z"/>
<path class="st14" d="M359.8,580.7c1.1-1.9,3.1-3.8,3.1-5.6c-0.3-9.3-1.1-18.6-1.6-26.1c-6.5-1.9-11.4-3.4-17.5-5.3
	c2.2,19.8,4.3,39,6.4,58.3c-0.6,1.7-2.1,4.3-1.5,4.8c4.1,3.6,15.4,1,19.6-4.9c-1.3,0.3-2.4,0.5-3.5,0.7c-1,0.2-2,0.4-2.9,0.6l0,0
	c0.3-2.7,0.5-5.5,0.8-8.2C364.8,589.8,367.5,584.4,359.8,580.7z"/>
<polygon class="st1" points="181,752.8 181,752.8 181,752.8 "/>
<path class="st15" d="M137.8,771.3c-5.4,1.5-10.7,3-16.1,4.5c0,0.8-0.1,1.5-0.1,2.3c6.6,0,13.1,0,19.7,0c-0.7,0.8-1.4,1.6-3,3.5
	c16.5,0,32,0,47.6,0c-7-2.2-13.5-4.2-20-6.3c11.4,1.3,22.7,2.5,34.1,3.8c0.1-0.8,0.1-1.6,0.2-2.3c-7.2-2.2-14.5-4.5-21.7-6.7
	c11.5,2.8,22.9,5.8,34.4,1.6c-13.1-4.2-26.5-6.7-39-11.2c-13.5-4.9-25.5-6-38.5,1.3c-6.2,3.5-14.3,4.3-21.5,6.2
	c-2.6,0.7-5.4,1-9.6,1.8C116.5,776.4,127.2,772.2,137.8,771.3z"/>
<path class="st1" d="M271,751.3c12,0,24.1-1,36.1-1.6c3-0.1,6-0.5,9-0.1c11.4,1.4,22.8,3,36,4.8c-13-3.7-23.8-7.1-34.9-9.8
	c-2.9-0.7-6.4,0.3-9.5,0.9c-2.8,0.6-5.4,2.4-8.2,2.4c-9.3,0.1-18.6-0.3-28-0.7c-6.9-0.3-10.4-3-9.4-10.1c1.3-9.4,2-18.9,2.3-28.3
	c0.3-8.7-0.3-17.4-0.4-26.1c0-3,0.3-5.9,0.5-8.9c-2.9,9.9-7.4,20.7-4.7,29.6c4.4,14.3-1.8,27.1-0.2,42.5
	c-6.5-4.2-11.1-7.2-17.3-11.1C249.8,745.9,259,751.3,271,751.3z"/>
<path class="st1" d="M284.5,736.8c2.4-14,4.8-28,7.6-43.9c-12.6,9.7-22,18.1-19.4,32.2c4.9-7.3,1.1-19.3,15.7-22
	c-2.1,11.5-4.2,22.5-6.2,33.4C283,736.6,283.8,736.7,284.5,736.8z"/>
<path class="st1" d="M347.5,430.6c-4.7-54.2-9.5-108.4-14.2-162.6c-0.7,0.2-1.3,0.3-2,0.5c4.6,54.1,9.2,108.2,13.9,162.3
	C345.9,430.7,346.7,430.6,347.5,430.6z"/>
<path class="st1" d="M338.7,400.7c-3-41.9-6.1-83.8-9.1-125.6c-0.7-0.1-1.3-0.2-2-0.2c2.8,42,5.7,84,8.5,126
	C337,400.8,337.8,400.8,338.7,400.7z"/>
<path class="st1" d="M319.1,136.2c1.1,16,2.3,32,3.4,48.1c0.7,0,1.3-0.1,2-0.1c-1.3-16.1-2.5-32.1-3.8-48.2
	C320.1,136,319.6,136.1,319.1,136.2z"/>
</svg>
