<svg id="圖層_1" data-name="圖層 1" xmlns="http://www.w3.org/2000/svg" viewBox="0 0 400.6 779.93"><defs><style>.cls-1{fill:#e48132;}.cls-2{fill:#fdfdfe;}.cls-3{fill:#fff;}</style></defs><title>fgpwdbg</title><path class="cls-1" d="M333.06,314h0a17.26,17.26,0,0,0-3.85,3.3A16.86,16.86,0,0,1,333.06,314Z" transform="translate(-82.95 -15.47)"/><path class="cls-1" d="M265.73,519.63c.38-.51.82-1,1.28-1.53-.46.51-.9,1-1.28,1.53Z" transform="translate(-82.95 -15.47)"/><path class="cls-1" d="M185,748l2,1.29,4.66.32-4.66-.32Z" transform="translate(-82.95 -15.47)"/><path class="cls-1" d="M286.65,781a12.84,12.84,0,0,0-1-.86h0A12.84,12.84,0,0,1,286.65,781Z" transform="translate(-82.95 -15.47)"/><path class="cls-1" d="M339.06,464.86a18,18,0,0,1,4.25-3.86h0A18,18,0,0,0,339.06,464.86Z" transform="translate(-82.95 -15.47)"/><path class="cls-1" d="M336.62,469.27a19.51,19.51,0,0,0-.86,3.19A19.51,19.51,0,0,1,336.62,469.27Z" transform="translate(-82.95 -15.47)"/><path class="cls-1" d="M335.76,472.46a27.87,27.87,0,0,0-.4,3.32A27.87,27.87,0,0,1,335.76,472.46Z" transform="translate(-82.95 -15.47)"/><path class="cls-1" d="M169.56,752.6l-2,.2c-2.86-.78-5.73-2.13-8.59-2.46,2.86.33,5.73,1.68,8.59,2.46Z" transform="translate(-82.95 -15.47)"/><path class="cls-1" d="M196.76,758.36c-3.41.31-6.82.7-10.24.92,3.42-.22,6.83-.61,10.24-.92Z" transform="translate(-82.95 -15.47)"/><path class="cls-1" d="M269,515.81a19.22,19.22,0,0,1-1.28,1.53A19.22,19.22,0,0,0,269,515.81Z" transform="translate(-82.95 -15.47)"/><path class="cls-1" d="M284.12,527.3a6.93,6.93,0,0,1,2.07-4.33A6.93,6.93,0,0,0,284.12,527.3Z" transform="translate(-82.95 -15.47)"/><path class="cls-1" d="M181.75,749.43h0L185,748Z" transform="translate(-82.95 -15.47)"/><path class="cls-1" d="M364.81,602.74l-2.89.62h0Z" transform="translate(-82.95 -15.47)"/><path class="cls-1" d="M173.82,752.16l7.28-1h0l-7.28,1Z" transform="translate(-82.95 -15.47)"/><path class="cls-1" d="M181.09,749.71h0l-4.91,1.66Z" transform="translate(-82.95 -15.47)"/><path class="cls-1" d="M104.12,727.41c.08-.07.07-.29,0,0Z" transform="translate(-82.95 -15.47)"/><path class="cls-1" d="M104.12,727.41l0,0-.22.07.21,0Z" transform="translate(-82.95 -15.47)"/><path class="cls-1" d="M83.51,761.17c-.19.87-.37,1.75-.56,2.62,23.37,15.33,49.94,22.07,81.24,23.11l-10,2.11c25.47-1.36,49.46-7.44,71.12-19.81,5.43-3.1,9.36-3.57,14.77-.52,19.88,11.21,41.7,17.77,64.67,20.58,11.84,1.44,24,2.13,35.64-1.83-4.27-1-8.88-2.69-12.65-1.67-13.18,3.56-25.37-1.61-38-2.7-1.08-.1-2.08-1.11-3.08-2a12.84,12.84,0,0,0-1-.86h0c.51.05,1,.11,1.54.18a16.72,16.72,0,0,0,4.6.25c20.77-3.06,40.57-8.84,58.49-19.21,5.18-3,9.36-3.13,15-.78,14.59,6,29.37,11.81,44.48,16.59a157.51,157.51,0,0,0,60.75,7.12c3.65-.3,8.51.08,7.63-3.32l-52.33-2.29c0-.6.07-1.21.11-1.81l34.31-3.73c-9.7-.37-19.21.89-28.76,1.34s-19.46,1.54-30.2-4.9c8.62,0,15.05.64,21.29-.13,15.22-1.87,30.48-3.85,45.44-7,5.58-1.16,10.37-5.57,15.52-8.5l-1.63-2c-42.23,12.25-88.43,5.75-101.43-7.28,12.6-4.91,26.41-9.14,38.88-15.57,7.6-3.92,13.32-5.18,21.58-2.13a79.81,79.81,0,0,0,39.25,3.81c-.52-1-1.2-1.58-1.86-1.56a83.52,83.52,0,0,1-42.27-9.5,20.3,20.3,0,0,0-13-1.63c-11.27,2.86-20.41-2-32.56-4.92,9.18-2,16.14-2.87,22.46-5.19,6-2.2,11.12-1.62,17.29-.57,14.74,2.51,29.78,3.55,44.71,5,1.82.17,3.78-.93,5.67-1.44-19.64-.34-38.4-2.18-56.36-9.17-1.78-.69-4.63.24-6.7,1-27.26,10.5-55,5.57-82.64,2.14-7.63-.94-12.16-4.87-10.27-13.21.83-3.66-.65-7.73-.74-11.63-.49-19.75-2.25-39.58-.91-59.23,1.65-24.43,5.73-48.74,9.23-73,.42-2.86,3.79-5.35,5.79-8a410.1,410.1,0,0,1,6.21,56.4c.28,6.53-.47,13.79-3.45,19.53-2.27,4.38-4.24,7.44-1.81,12.1a17.14,17.14,0,0,1,2,8c-.11,6.94-.67,13.88-1.28,20.8-.65,7.22,2.55,11.55,8.24,10.89v-.61c-1.75-3.81-4.43-7.57-4.64-11.45-.34-6.26,1.2-12.6,2-19.38L360.47,644,348,648c0,5,0,12,0,19.06,0,.09.09.18.13.28q1.92-8.52,3.85-17c.41,0,2.57.59,3.27-.09,7.38-7.19,15.22-14.12,21.47-22.1,3.83-4.91,5.42-11.44-3-15.56a6.93,6.93,0,0,1-3.23-4.82c-2-20.17-3.69-40.36-5.61-60.53-.42-4.35,1.81-5.41,5.76-7.56,6.13-3.34,14-8.76,15.05-14.28,2.7-14.37,4.45-29.71-9-41.65,14.6-1.32,28.88-1.89,42.81-4.2,6.36-1.05,12.56-4.92,17.82-8.71,2.44-1.76,4.26-7.08,3.16-9.56-2.11-4.73-6.4-8.85-13.38-6.34-.07,8.83-.65,11-9.4,11.57a295.67,295.67,0,0,1-44-.62c-3.92-.33-9.95-5.53-10.51-9.1-2.84-17.9-4.28-36-6-54-3.24-33.35-6.27-66.71-9.54-100.05C342.46,250.44,337.36,198.18,332,146Q326,88.46,319.09,31c-.65-5.35-4.31-10.39-6.58-15.57l-4.4.19c-1.34,5.94-3.93,11.91-3.81,17.83q.81,38.52,3,77c3.8,69.44,7.9,138.86,11.87,208.29q3.88,67.76,7.78,135.51c.57,9.56-1.75,14.23-11.56,16.54a246,246,0,0,1-33.77,5.48c-9,.82-19.29,1.47-18.72-11.66-11.8,3.8-16.62,12.14-9.95,16.25,8.41,5.19,8.59,12,8.43,19.64a78.43,78.43,0,0,0,.41,13.37c.24,1.52,1.57,2.9,2.8,4.3a18.11,18.11,0,0,1,1.15,1.4h0c.38-.51.82-1,1.28-1.53.22-.26.46-.51.68-.76a19.22,19.22,0,0,0,1.28-1.53,5,5,0,0,0,1.06-2.37c.6-6,.21-12.08.21-17.52,4.49,0,9.2,1.35,11.16-.22,10.19-8.14,22.13-6.53,35.39-8-1.44,4.56-1.73,7.72-3.34,10.13-4.82,7.25-10.15,14.21-15.28,21.27-3.95,1.4-9.1,1.18-12,3.86a6.93,6.93,0,0,0-2.07,4.33,11.49,11.49,0,0,0-.11,1.6c-.09,8.74.82,17.73-1.12,26.14-2.61,11.33-5.94,23-11.81,33.12-12.23,21.12-27,41-39.47,62-10.83,18.35-29.62,29.1-44.7,43.38-12.7,12-25,13.13-39.87,3.47-4.37-2.84-7.72-3.16-12.33-1-15.22,7-31.23,10.39-48.32,8.14a10.06,10.06,0,0,0-2.72.4c0,.7,0,1.39,0,2.08,6.12.75,12.54,2.94,18.3,1.94,11.18-1.93,22-5.75,33-8.59,2.65-.68,5.93-1.52,8.23-.68,8.18,3,16.06,6.67,23.65,9.93-6.86,4.89-9.89,5.08-30,2.65l20.27,3.49c.09.52.18,1,.28,1.55L143,720.48l3.61,1c-.06.62-.13,1.24-.2,1.87h-17.3l9.37,3.35c-5.37,2.05-10,4.83-14.85,5.4-5.55.64-11.4-.52-17.06-1.27-1.76-.23-3.34-1.67-5-2.56.77-.24,1.55-.47,2.3-.74l-20.7-5.15c13,17.53,68.21,25.72,92.19,15.23h-47.9l-.57-2.21c30.07-13.58,57-31,77.48-53.46,2.94,4.33,4.65,10.24,8.28,11.54,10.65,3.79,15.51-5.22,22-10.74-9.12,15.82-13.21,34.25-29.76,45.87a3.33,3.33,0,0,0-1.46,1.84c-.93,7.76-1,7.63-6.5,10.52-4.09,2.14-8,4.66-11.91,7l2,1.29,4.66.32c5-4.31,11.18-7.89,14.62-13,10.41-15.64,19.77-31.88,29.46-47.92,1.55-2.56,2.75-5.3,4.33-8.37,1.83,15.52-12.62,30.3-.93,46.22,0-7.38-.8-13.73.16-19.84a303.87,303.87,0,0,1,9.61-42.44q1.89,18,3.76,36.07l1.82-.11c-.86-14.59-.75-29.3-2.82-43.74a64.51,64.51,0,0,1,9.11-44.27c7.61-12.54,14.79-25.31,23.29-39.91v33.63h2.08V550.11l2.48-.49c.84,2.8,1.67,5.6,2.88,9.63.32-3.53.53-5.9.78-8.79,10,45,19.88,89.32,29.79,133.63,3.3,14.76.44,24.24-9.33,33-.89-14.07-1.85-29.2-2.82-44.32l-3.21.22c1,6.71,3,13.45,2.82,20.14S307,706.34,304.34,713c2.89-16.32-4.29-30-11.45-43.82-3.45-6.69-4.95-14.23-9.17-21,2.63,8.43,3.89,17.51,8.19,25.14,9.47,16.84,10.51,34,5.52,52,1.18.32,2.2,1,2.81.71,13.12-5.22,24.82-.44,37.31,3.12,16.59,4.72,33.92,7.22,48.22,10.13H356.66c-.05.51-.09,1-.13,1.54l14.25.94-32,4.84c.07.65.14,1.31.2,2,5.44-.48,10.94-.66,16.31-1.5,11-1.7,20.75-1,31.07,4.67C405.18,762,426.79,762,448,762c2.4,0,4.8,0,7.38,1.77-7.92.65-15.85,1.87-23.77,1.78-8.37-.09-16.72-1.44-27.81-2.5l12.52,3.78-.1,1.27c-4.06-.47-8.11-1.12-12.19-1.37-4.62-.28-9.41.4-13.88-.45s-8.46-2.82-12.47-4.7A64.89,64.89,0,0,0,340.36,756a231.23,231.23,0,0,1-92.23-6.54c10.82,2.83,21.51,7.46,32.48,8.09,22.19,1.28,44.53.38,66.88,1.3-19.67,5-39.51,8-60,4.48,4.78,1,9.52,2.44,14.35,2.79,6.77.48,13.61.12,20.39,2.08H284.06V770h36.07c.07.5.14,1,.22,1.49-3.27.54-6.52,1.28-9.82,1.57-9.34.82-18.72,1.28-28,2.27-2.65.28-5.14,1.88-7.7,2.87l-37.74-14.68.48-1.37,5.62.73v-2.1c-4,.21-9-.94-11.68.88-8.88,6-18,4.08-27.59,2.84,1.2-1.32,2.1-2.29,3-3.26l-12.49,2.29,2.37-5.14c-3.41.31-6.82.7-10.24.92-1.19.08-2.38.14-3.57.17-.47,0-1-2.67-1.53-4.09l-.17.19.34-.68h.81c-.4-.62-.8-1.24-1.21-1.86l-3.59.59,3.18,1.71q-6.6-.59-13.19-1.19c-.14,0-.37-.38-.35-.56a2.25,2.25,0,0,1,.36-.75c-2.86-.78-5.73-2.13-8.59-2.46a10.14,10.14,0,0,0-1.23-.07c-8.15,0-16.29,1.13-24.43,1.06-9.36-.08-18.71-1-28.06-1.5l-.09,1.7,37,2c0,.66.05,1.33.07,2l-33.82,1.57c0,.24,0,.48,0,.72h24.5c-8.08,2.86-16.24,5.14-24.49,5.47S91.82,762,83.51,761.17Zm140-73.11c-3,1.72-9.47,2.11-11.77.31-4.37-3.39.48-6.27,3-9.38,10.72-13,21-26.41,31.37-39.64C249.63,656.36,239.81,678.84,223.55,688.06Zm151-70-5.16,3.58,8.49-.86-13.23,17.3-2.48-.92-2.32-7.44c-.39,3.41-.71,6.15-1,9-17.14-5.16-19.34-11.91-9.64-28.08l17.43-1.56Zm-11.84-23-.81,8.21,2.89-.62,3.46-.75c-4.22,5.92-15.49,8.5-19.61,4.87-.61-.53.95-3.15,1.51-4.81-2.13-19.25-4.25-38.51-6.43-58.28L361.26,549c.5,7.55,1.3,16.82,1.55,26.1.05,1.85-2,3.75-3.06,5.63C367.54,584.35,364.8,589.81,362.73,595.15Zm6.11-123.81h27.7c0,.32,0,.63.07,1l-4,1,.15,1.61c9.8-.95,19.69-1.45,29.35-3.09,3.38-.58,6.07-4.17,9.32-6a10.06,10.06,0,0,1,6.43-.93c-9.3,11.49-38.35,17.15-69,14.37Zm-15.18-1c1,3.6,2.95,9.27,1.23,10.71-3.79,3.16-9.63,4.22-15.37,6.41-2.35-7.85-3.91-13.69,1.16-19.47,1.38-1.57,1.72-3.92,2.34-6.05.09-.3.18-.6.29-.9a18,18,0,0,0-4.25,3.86,15.88,15.88,0,0,0-2.44,4.41,19.51,19.51,0,0,0-.86,3.19,27.87,27.87,0,0,0-.4,3.32c-.23,3.38,0,6.91.11,10.38l-2.61-.06c-.57-3-1.13-5.91-2.07-10.8-.4,4.59-.63,7.3-.87,10-1.46-5.59-3.76-10.57,1.84-16.14,4.71-4.68,6.38-12,9.54-18,.68-1.31,2-2.32,4-4.55,5.8,12.32,19.54,20.36,14.82,37.29-5.28-6.92.46-17.29-10.2-19.76C351.22,466.19,353.07,468.1,353.66,470.3Zm-45-437.52,5.14-.3c17.39,141,29.25,282.57,45,423.92-8.11-4-9.78-7-11.08-19.27l-4.23,3.6c-1.29-1.73-2.57-3.46-3.14-4.21-1.44,6.44-3.17,14.1-4.89,21.77l-4.12-.37Zm-28.27,459.8-11.05-.79c-.7,7.71-1.44,15.95-2.18,24.18l-2.36-.15c-.57-8.94-1.13-17.87-1.72-27.26l17.49,1.68Zm-28.6-14.32c3.8-1.44,6.85-3.22,7.39-2.71,13.14,12.31,28,6,42.44,3.55,6.94-1.18,13.72-3.16,22-5.11.43,3.27.77,5.91,1.29,10C300.74,484,276.93,491.59,251.79,478.26Zm63.37,23.64c7.26-12.18,7.17-12,21.92-8.28,2.41.61,6.54-.77,8.33-2.56,8.3-8.25,17.78-3.71,26.85-2.55,1.36.18,3.07,2.76,3.21,4.34.08.9-2.69,2-3,2.18l10.13,6.56-6,4.6c3.83,1.56,9.19,3.81,3.53,9.89-.39.42-.84.78-1.27,1.17,12.71,11-9.89,9.85-7.26,17.57a13.16,13.16,0,0,1-5.56,2.15c-10.35.23-20.71.11-30.46.11l-6.84-34.48-19.3,7.6C312.09,506.44,313.76,504.24,315.16,501.9Zm15.77,34.25-3.43.48c-.6-3.34-1.11-6.7-1.81-10-1-4.77-2.28-9.49-3.12-14.29-.24-1.34.64-2.86,1-4.3l3.25.24Zm-15,108.91c-3.05-14.72-5.88-28.54-8.78-42.35-4.14-19.65-8.41-39.28-12.45-59a75.46,75.46,0,0,1-1.11-11.64c-.11-2.15.15-2,4.46-2.78,1.09-.19,2.84-2,2.63-2.61-.59-1.65-2-3-1.19-5.33-.4-.77-.79-1.53-1.22-2.26l-.19.11.16-.16,0,0c11.88-7,16-5.82,20.9,6.79,4,10.33,7.17,21,10.71,31.43l-3.13,1-9.17-27.38-2.57.27c8.82,20.33,11,40.63-1,60.83l2.67.19,6.81-15.5,1.27.38C321.84,599.37,319,621.62,315.93,645.06Zm61.34,80.41a19.28,19.28,0,0,0-3.75-.46c-2.93,0-3.83,1.49-3.74,5.16h0l1.22.06-1.24.21c0-.09,0-.17,0-.26-1.89.69-4,2.21-5.65,1.88-7.47-1.45-14.82-3.43-23-5.41L352,724.39l-36.92-4.8,7.77-8.57c.3-1.77.59-3.55.86-5.15l29.33,6.84,0,1.63-14.71-1.25c-.44,7-6.48.78-9.66,4.81,4.55.88,8.9,2.89,12.72,2.24,10-1.69,19.75-4.58,29.61-6.91,2.53-.6,5.45-1.84,7.65-1.2,14.11,4.13,28.06,8.7,42.82,13.35l-23.32-2.22,16,5.1-.34,2C401.64,728.75,389.27,727.9,377.27,725.47ZM135.34,761.74c13-7.3,25-6.24,38.46-1.32,12.54,4.58,26,7,39,11.25-11.52,4.15-23,1.15-34.42-1.64l21.73,6.7-.22,2.35-34.05-3.8,20,6.27H138.25l3-3.48H121.6c0-.76.08-1.52.11-2.28l16.07-4.48c-10.61.9-21.31,5.08-33.52-1.57,4.18-.78,6.93-1.13,9.57-1.82C121.08,766,129.12,765.24,135.34,761.74Z" transform="translate(-82.95 -15.47)"/><path class="cls-1" d="M482.71,793l-66.18-2.67,6.48,1.87c-.08.28-.15.56-.23.84l-33-3.2c-.06.37-.13.74-.19,1.11l5.23,1.1c-4,.78-7.86.29-11.69,0-10.11-.68-20.54-3-30.29-1.54a220.73,220.73,0,0,1-43,2.37q-9.49-.43-18.95-1.8-2.37-.35-4.74-.75c-3.15-.55-6.3-1.17-9.45-1.88-4.23.55-8.45,1.2-12.69,1.6-1.44.13-3-.74-4.42-.51-2.15.36-4.83,2.4-6.17,1.75-9.83-4.72-18.59-.59-28.15,1.12-10.5,1.88-21.7.43-32,.43l28.3-12.17c-20.35,7.41-41.09,13.2-63.31,12.35-9.95-.39-19.88-1.28-29.83-1.53-9.55-.24-19.12-.11-28.67.18-5.48.17-11,1-16.42,1.48.09.75.18,1.5.26,2.26h399Z" transform="translate(-82.95 -15.47)"/><path class="cls-1" d="M353.8,700.46l3.91,0c7-10.14-1.68-19.54-3.91-29.24Z" transform="translate(-82.95 -15.47)"/><path class="cls-1" d="M166.21,745.47H118.94l-.33,1H166.2C166.2,746.13,166.2,745.8,166.21,745.47Z" transform="translate(-82.95 -15.47)"/><path class="cls-1" d="M263.76,554.83c6.71-6.58,4.33-12.63,0-19.75Z" transform="translate(-82.95 -15.47)"/><path class="cls-1" d="M434.86,788.74h45.82l-.06-1H435.16Z" transform="translate(-82.95 -15.47)"/><path class="cls-1" d="M173.82,752.16h0l7.28-1c0-.47,0-.93,0-1.4l-4.91,1.66Z" transform="translate(-82.95 -15.47)"/><path class="cls-1" d="M185,748l-3.27,1.48,5.05.06-5.47,1.8c0,.55,0,1.1,0,1.65l3.28,1.72,7-5.1-4.66-.32Z" transform="translate(-82.95 -15.47)"/><path class="cls-2" d="M335.43,458.29c1.72-7.67,3.45-15.33,4.89-21.77.57.75,1.85,2.48,3.14,4.21l4.23-3.6c1.3,12.31,3,15.31,11.08,19.27-15.72-141.35-27.58-282.9-45-423.92l-5.14.3,22.65,425.14ZM333.28,268l14.22,162.6-2.39.18L331.25,268.41ZM322.5,184.27q-1.72-24-3.44-48.07l1.56-.25q1.92,24.09,3.83,48.18Zm7.08,90.81q4.55,62.81,9.11,125.63l-2.56.15q-4.26-63-8.54-126Z" transform="translate(-82.95 -15.47)"/><path class="cls-3" d="M335.67,537.08c9.75,0,20.11.12,30.46-.11a13.16,13.16,0,0,0,5.56-2.15c-2.63-7.72,20-6.6,7.26-17.57.43-.39.88-.75,1.27-1.17,5.66-6.08.3-8.33-3.53-9.89l6-4.6L372.52,495c.26-.17,3-1.28,3-2.18-.14-1.58-1.85-4.16-3.21-4.34-9.07-1.16-18.55-5.7-26.85,2.55-1.79,1.79-5.92,3.17-8.33,2.56-14.75-3.7-14.66-3.9-21.92,8.28-1.4,2.34-3.07,4.54-5.63,8.3l19.3-7.6Z" transform="translate(-82.95 -15.47)"/><path class="cls-3" d="M323.45,576.73l-6.81,15.5L314,592c12-20.2,9.86-40.5,1-60.83l2.57-.27,9.17,27.38,3.13-1c-3.54-10.48-6.7-21.1-10.71-31.43-4.91-12.61-9-13.76-20.9-6.79.43.73.82,1.49,1.22,2.26-.84,2.3.6,3.68,1.19,5.33.21.58-1.54,2.42-2.63,2.61-4.31.78-4.57.63-4.46,2.78a75.46,75.46,0,0,0,1.11,11.64c4,19.67,8.31,39.3,12.45,59,2.9,13.81,5.73,27.63,8.78,42.35,3-23.44,5.91-45.69,8.79-67.95Z" transform="translate(-82.95 -15.47)"/><path class="cls-1" d="M298.08,519.25l.19-.11,0,0Z" transform="translate(-82.95 -15.47)"/><path class="cls-3" d="M214.82,679c-2.56,3.11-7.41,6-3,9.38,2.3,1.8,8.74,1.41,11.77-.31,16.26-9.22,26.08-31.7,22.64-48.71C235.79,652.58,225.54,666,214.82,679Z" transform="translate(-82.95 -15.47)"/><path class="cls-3" d="M349.19,610.65c-9.7,16.17-7.5,22.92,9.64,28.08.33-2.82.65-5.56,1-9l2.32,7.44,2.48.92,13.23-17.3-8.49.86,5.16-3.58-7.95-9Z" transform="translate(-82.95 -15.47)"/><path class="cls-3" d="M323.62,474c-8.28,1.95-15.06,3.93-22,5.11-14.4,2.43-29.3,8.76-42.44-3.55-.54-.51-3.59,1.27-7.39,2.71,25.14,13.33,49,5.77,73.12,5.69C324.39,479.9,324.05,477.26,323.62,474Z" transform="translate(-82.95 -15.47)"/><path class="cls-3" d="M437.82,464.83a10.06,10.06,0,0,0-6.43.93c-3.25,1.84-5.94,5.43-9.32,6-9.66,1.64-19.55,2.14-29.35,3.09l-.15-1.61,4-1c0-.32-.05-.63-.07-1h-27.7v7.86C399.47,482,428.52,476.32,437.82,464.83Z" transform="translate(-82.95 -15.47)"/><path class="cls-3" d="M414.19,728.26l-16-5.1,23.32,2.22c-14.76-4.65-28.71-9.22-42.82-13.35-2.2-.64-5.12.6-7.65,1.2-9.86,2.33-19.62,5.22-29.61,6.91-3.82.65-8.17-1.36-12.72-2.24,3.18-4,9.22,2.15,9.66-4.81l14.71,1.25,0-1.63-29.33-6.84c-.27,1.6-.56,3.38-.86,5.15l-7.77,8.57,36.92,4.8-10.88,2.25c8.16,2,15.51,4,23,5.41,1.67.33,3.76-1.19,5.65-1.88-.09-3.67.81-5.15,3.74-5.16a19.28,19.28,0,0,1,3.75.46c12,2.43,24.37,3.28,36.58,4.78Z" transform="translate(-82.95 -15.47)"/><path class="cls-1" d="M369.79,730.43l1.24-.21-1.22-.06h0C369.79,730.26,369.78,730.34,369.79,730.43Z" transform="translate(-82.95 -15.47)"/><path class="cls-2" d="M360.14,483.9c4.72-16.93-9-25-14.82-37.29-2,2.23-3.34,3.24-4,4.55-3.16,6-4.83,13.32-9.54,18-5.6,5.57-3.3,10.55-1.84,16.14.24-2.7.47-5.41.87-10,.94,4.89,1.5,7.85,2.07,10.8l2.61.06c-.09-3.47-.34-7-.11-10.38a27.87,27.87,0,0,1,.4-3.32,19.51,19.51,0,0,1,.86-3.19,15.88,15.88,0,0,1,2.44-4.41,18,18,0,0,1,4.25-3.86h0c-.11.3-.2.6-.29.9-.62,2.13-1,4.48-2.34,6.05-5.07,5.78-3.51,11.62-1.16,19.47,5.74-2.19,11.58-3.25,15.37-6.41,1.72-1.44-.27-7.11-1.23-10.71-.59-2.2-2.44-4.11-3.72-6.16C360.6,466.61,354.86,477,360.14,483.9Z" transform="translate(-82.95 -15.47)"/><path class="cls-3" d="M360.47,644l-15.18-7.77c-.79,6.78-2.33,13.12-2,19.38.21,3.88,2.89,7.64,4.64,11.45,0-7.06,0-14,0-19.06Z" transform="translate(-82.95 -15.47)"/><path class="cls-1" d="M264.8,515.82l2.36.15c.74-8.23,1.48-16.47,2.18-24.18l11.05.79.18-2.34-17.49-1.68C263.67,498,264.23,506.88,264.8,515.82Z" transform="translate(-82.95 -15.47)"/><path class="cls-3" d="M323.57,508c-.36,1.44-1.24,3-1,4.3.84,4.8,2.12,9.52,3.12,14.29.7,3.32,1.21,6.68,1.81,10l3.43-.48-4.11-27.89Z" transform="translate(-82.95 -15.47)"/><path class="cls-2" d="M359.75,580.75c1.08-1.88,3.11-3.78,3.06-5.63-.25-9.28-1.05-18.55-1.55-26.1l-17.52-5.25c2.18,19.77,4.3,39,6.43,58.28-.56,1.66-2.12,4.28-1.51,4.81,4.12,3.63,15.39,1,19.61-4.87l-3.46.75-2.89.62h0l.81-8.21C364.8,589.81,367.54,584.35,359.75,580.75Z" transform="translate(-82.95 -15.47)"/><polygon class="cls-1" points="98.1 737.32 98.1 737.32 98.1 737.32 98.1 737.32"/><path class="cls-3" d="M137.78,771.31l-16.07,4.48c0,.76-.07,1.52-.11,2.28h19.65l-3,3.48h47.59l-20-6.27,34.05,3.8.22-2.35L178.43,770c11.45,2.79,22.9,5.79,34.42,1.64-13.07-4.21-26.51-6.67-39-11.25-13.47-4.92-25.48-6-38.46,1.32-6.22,3.5-14.26,4.28-21.51,6.18-2.64.69-5.39,1-9.57,1.82C116.47,776.39,127.17,772.21,137.78,771.31Z" transform="translate(-82.95 -15.47)"/><path class="cls-1" d="M271,751.31c12,0,24.07-1,36.11-1.59a54.68,54.68,0,0,1,9-.13c11.44,1.39,22.85,3,36,4.82-13-3.73-23.82-7.09-34.85-9.83-2.88-.71-6.38.32-9.51.95-2.78.56-5.43,2.41-8.15,2.43-9.32.08-18.65-.3-28-.68-6.89-.28-10.37-3-9.38-10.14a268.42,268.42,0,0,0,2.29-28.32c.29-8.69-.34-17.41-.44-26.12,0-3,.31-5.92.49-8.88-2.94,9.88-7.39,20.65-4.66,29.55,4.38,14.32-1.8,27.15-.21,42.53l-17.26-11.11C249.77,745.92,259,751.32,271,751.31Z" transform="translate(-82.95 -15.47)"/><path class="cls-1" d="M284.52,736.84c2.42-14,4.85-28,7.61-43.93-12.61,9.69-22,18.09-19.38,32.21,4.93-7.28,1.12-19.32,15.71-22-2.13,11.48-4.16,22.46-6.19,33.44Z" transform="translate(-82.95 -15.47)"/><path class="cls-1" d="M347.5,430.55,333.28,268l-2,.46,13.86,162.32Z" transform="translate(-82.95 -15.47)"/><path class="cls-1" d="M338.69,400.71q-4.56-62.82-9.11-125.63l-2-.24q4.28,63,8.54,126Z" transform="translate(-82.95 -15.47)"/><path class="cls-1" d="M319.06,136.2q1.71,24,3.44,48.07l1.95-.14Q322.53,160,320.62,136Z" transform="translate(-82.95 -15.47)"/></svg>