<?xml version="1.0" encoding="utf-8"?>
<!-- Generator: Adobe Illustrator 24.0.2, SVG Export Plug-In . SVG Version: 6.00 Build 0)  -->
<svg version="1.1" id="圖層_1" xmlns="http://www.w3.org/2000/svg" xmlns:xlink="http://www.w3.org/1999/xlink" x="0px" y="0px"
	 viewBox="0 0 595.3 841.9" style="enable-background:new 0 0 595.3 841.9;" xml:space="preserve">
<style type="text/css">
	.st0{fill:none;}
	.st1{fill:#0857A2;}
	.st2{fill:#FFFFFF;}
</style>
<path class="st0" d="M290.8,285.8C290.8,285.8,290.8,285.8,290.8,285.8c-1.1,0.7-2,1.5-2.7,2.3C288.8,287.2,289.7,286.5,290.8,285.8
	z"/>
<path class="st0" d="M239.1,277.7c-0.7,0.8-1.5,1.6-2.2,2.5C237.7,279.4,238.4,278.5,239.1,277.7
	C239.1,277.7,239.1,277.7,239.1,277.7z"/>
<path class="st0" d="M219.8,249.9C219.8,249.9,219.8,249.9,219.8,249.9c-0.6,0.2-1.4,0.4-1.4,0.6
	C218.4,250.3,219.2,250.1,219.8,249.9z"/>
<path class="st0" d="M232.4,279.4c2.2-0.6,4.4-1.2,6.6-1.7c0,0,0,0,0,0C236.8,278.2,234.6,278.8,232.4,279.4z"/>
<path d="M239.1,277.7C239.1,277.7,239.2,277.7,239.1,277.7L239.1,277.7z"/>
<path class="st1" d="M471,332.7c-3.7-3.1-6.9-7.1-9.3-11.3c-6.5-11.1-14.7-10.4-26.3-7.6c-25.2,6.2-51,10-76.6,14.7
	c-0.3-2-0.5-3.9-0.8-5.9c13.6-1,27.2-2,40.8-3c-4.4-5.7-9.7-8.3-15.1-10.6c-2.9-1.2-6.5-1.3-8.9-3c-6.7-4.9-12.9-10.5-17-13.9
	c1.7-1.3,6.1-4.9,10.8-7.8c8.7-5.4,19-8.6,24.5-18.3c0.1-0.2,3.8,2.5,5.4,2.1c5.5-1.3,15.5-4.1,15.4-4.9c-1.4-8.3,3.4-19.3-8.5-23.9
	c-15,3.3-18-11.3-26.5-17.7c-3.5-2.6-6.5-6-10.4-9.7c4.8,0,10.4,0,16.1,0c11.4-22.3-14.2-24.7-21.4-37.7c-2.7,1.4-9,4.9-9.1,4.7
	c-9-15.1-24-4.3-35.6-8.1c-6.9-2.2-15.1-0.4-25.6-0.4c6.5,3.8,10.1,6,13.7,8.1c-0.2,1.1-0.4,2.2-0.6,3.3c-7,0.7-14,1.4-23.6,2.4
	c18.3-44.2,35.1-84.2,51.3-124.4c3.4-8.5,4.4-18,6.5-27c-2-0.7-4-1.3-6.1-2C307,76.5,293.2,128.6,269.7,176
	c-18.4-7.1-18.4-7.1-22.3,1.2c4.9,2.8,9.9,5.7,14.8,8.5c-7.9,14.6-15.4,28.6-24.2,44.9c-2.3-6.5-3.6-10.1-5.1-14.2
	c-7.3,5.8-12.1,5.4-13.7-4.5c-2-12.7-5.9-24.3-21.1-26.1c-16.3-2-30.1,4.5-36.8,18.7c-4.9,10.4-6.7,23.3-6.3,34.9
	c0.5,15.5-3.6,26.2-18.2,33.1c-7.4,3.5-13.6,9.6-20.4,14.6c0.6,0.8,1.1,1.6,1.7,2.3c7.9-3.7,15.8-7.4,23.8-11.2
	c-11.4,10.6-27.8,15.7-33.1,30.4c14.4-7.5,28.8-15.4,43.7-22.5c19.4-9.3,31.1-22.6,29.4-45.8c-0.6-7.8,1.4-16.8,5.1-23.8
	c5.5-10.5,13.7-9,19.9,3.1c-27.7,13.9-8,37.6-11.8,57.2c4.5-2,8.5-7.6,10.8-6.9c11.6,3.3,22.7,8.2,34,12.6c0,0,0,0,0,0
	c-1.8,0.6-4,1-4.1,1.9c-3.3,19.2-10,8.3-16.6,2.1c-3-2.8-6.7-5-11.1-8.2c-44.2,11.3-63,33.1-64.7,80.5c-1,26.3-5.1,51.1-18.4,74.4
	c-4.9,8.6-5.8,19.4-8.5,29.2c-4.8,17.2-6.7,36-15.3,51.1c-13.3,23.4-31.1,44.1-47.6,66.8c14.2,5.8,24.2,2.9,32.9-5.9
	c9.5-9.6,19.6-11.4,31.7-4.3c5.7,3.3,12.7,5,19.3,6.1c15.4,2.6,30.9,4.3,46.6,6.4c0-28.1-18.1-57.7-5.8-86.5
	c1.1,14.5,1.8,30.8,3.5,47.1c1.8,16.4,4.5,32.8,7,49.9c-11.7-4.7-19.9-8.8-28.6-11.1c-3.9-1-10.3,0.3-12.9,3.1
	c-6.6,6.9-11.7,15.2-17.5,23.2c4.2-0.2,8.7-0.5,13.3-0.7c0.2,1.6,0.4,3.2,0.6,4.8c-13.5,1.7-26.9,3.4-40.7,5.2
	c4.4,2.8,9.4,5.9,14.4,9c-0.3,0.9-0.5,1.9-0.8,2.8c-10.1-1.7-20.3-3.4-30.8-5.1c14.4,27.2,37.6,29.2,64.6,24.4
	c-6.9,2.8-13.8,5.5-22.2,8.8c29.9,3.1,42.2-3.3,62-32.2c-0.7,6.5-1.2,11.4-2,18.3c14.1-21.1,15.1-40.7,7.5-70.7
	c-5-19.7-8.6-40-10.4-60.2c-1-11.6,2.4-23.8,15.4-29.8c1.5,12.7,3.1,24.2,4.1,35.8c1,11.8,1.4,23.7,2.1,36.6
	c10-8.6,18.8-16.2,30.9-26.6c-2.4,6.9-3.1,10.4-4.8,13.4c-6.3,11-12.5,22.1-19.6,32.7c-6.8,10.2-7.2,19.3,0.4,29.5
	c7.5,10.2,15.9,20.6,19.8,32.3c3.3,10,2.4,19.3,12.6,27.9c12.6,10.7,26,16.8,41.7,10.3c-4.1-7.8-7.8-16.1-12.6-23.5
	c-9.3-14.3-19.1-28.2-29-42.1c-8.8-12.3-8-23.3,2.9-33.9c6.2-6.1,11.5-13,17.4-19.7c9.7,3.2,10.6,9.7,6.2,18.2
	c-2.7,5.2-4.4,11-7.7,15.8c-8.7,12.7-5.2,21.7,6,31.4c17,14.7,35.6,29,47.9,47.3c13.2,19.6,28.7,11.9,44.9,11.9
	c-13.8-14.2-18.1-35-37.3-44.8c-9.7-5-17.1-14.5-25.6-21.8c-8.4-7.3-9.7-15.2-3.2-24.5c7.3-10.4,14.9-20.6,21.6-31.4
	c22.3-36.2,19.9-56.9-9.5-87.7c-0.3-0.3,0.2-1.4,0.8-3.9c7.3,6.8,13.9,12.9,19.3,17.9c6.6-8.7,13.5-17.7,22.8-29.9
	c3.8,10.6,6.1,16.7,7.3,20.1c-4.2,4.5-6.8,7.2-9.3,9.9c3.4-0.3,6.8-0.8,10.2-0.8c1.9,0,3.9,1.2,5.7,0.9c16.6-2.3,31.1-7.9,39-25.6
	c-3.1-0.5-5.2-1.5-6.6-0.9c-9.6,3.8-12.5-3-16.7-9.3c-4.6-6.8-2.8-11.3,2.2-16.5c11.7-12.4,23-25.1,35.1-38.4
	c-1.4-1.6-5.1-5.6-10.3-11.4c1.9,0.3,3.7,0.6,5.6,0.8c12.7,1.9,23.5,3.5,34.4,5.1c0,0,0,0,0,0c-3.2,2.1-5.9,4.3-7.9,6.7
	c-5.1,6.1-6.4,13.3-4.2,22.5c0.4,1.8,1,3.7,1.7,5.7c8.1-3.7,16.2-7.4,24.5-11.2c-1.6,11.8-5.6,18.5-19.8,22.4
	c-17.9,4.9-16.6,18.1-19.3,29.8c22.4,3.4,33.4-12,46.8-23.3c11.7-9.9,15.7-21.7,12.5-36.6c-1.5-6.9-4.5-15.6-1.7-20.9
	C492.3,362.7,488.1,346.8,471,332.7z M174.5,207.2c-5.5,6.6-7.5,16-11.8,25.8c1.3-26.3,13.1-39.5,32.1-40.1
	C189.2,196.7,180.1,200.6,174.5,207.2z M342,257.2c-0.5-1.2-1.1-2.5-1.6-3.7c-3.9-0.3-7.9-0.7-12.1-1c3.8-2.3,7.3-4.4,10.8-6.5
	c-0.3,1-0.6,2.1-0.9,3.1c15.7,3.7,31.4,7.3,49.8,11.6c-13.5,4.8-24.1,9.5-35.2,12c-3.4,0.8-8.1-4.4-13.8-7.8
	c-5.3,2.2-12.2,5.2-19.2,8.1c-0.3-0.5-0.5-0.9-0.8-1.4C326.7,266.8,334.3,262,342,257.2z M299.4,198.2c-24.3,24.7-18,55.5-18.6,85.1
	C272.3,236.4,277.2,213.5,299.4,198.2z M330.4,44.8c1.1,0.5,2.3,0.9,3.4,1.4c-18.4,44.4-36.7,88.9-55.1,133.3
	c-1.1-0.5-2.3-0.9-3.4-1.4C293.7,133.7,312,89.3,330.4,44.8z M250.2,268.5c4.6-12.9,7.1-26.6,11.9-39.4c4.7-12.3,11.2-24,16.9-35.9
	c1.9,0.6,3.8,1.1,5.6,1.7c-0.9,3.3-0.7,8.2-2.8,9.6c-13.3,8.6-12,24.1-18,36.1c-0.5,0.9,2.5,3.6,5,7.1c-3.4,10.5-7.6,23.8-12.8,40
	c5.1-1.9,6.9-2.7,8.7-3.4c7.7,22.4,7.7,22.4,26.5,25.8c-12.3,1.6-24.7,3.3-37.4,5c3-16.8-6.9-24.2-13.4-33.1c0,0-0.4,0.5-0.4,0.5
	C243.6,277.9,248.3,273.7,250.2,268.5z M170.2,446.9c-6.6,5.6-11.3,13.3-16.9,20c-0.9-0.5-1.8-1-2.8-1.5c5.4-7.7,9.8-16.4,16.4-22.9
	c19.9-19.2,23.1-40.6,15.3-66.7c-5.8-19.6-6.9-40.5-9.7-61c-0.3-2.4,1.9-5.2,3.9-7.9c-4.7,22.2,2.1,42.4,10.1,62.1
	C198.7,398.8,196,424.9,170.2,446.9z M226.5,381.8c-0.8,12-1.1,24.1-1.7,36.2c-1.8,0-3.6,0-5.4-0.1c0-7.5,2-15.8-0.4-22.5
	c-5.2-14.4-11.2-28.9-19.4-41.8c-10.8-17.1-14-25.6-9.6-45.1c6.7,17.2,12.9,33.4,31.9,33.4c-0.2,3.1-1.7,7.1-0.3,9.2
	c2.1,3.2,6.2,5.2,7.7,6.3C228.4,365.3,227.1,373.6,226.5,381.8z M291.3,410.7c3.7,5.7,5.9,9,9.9,15.2c-11.4,1-21.7,2-32,2.9
	c0,0.1,0,0.2,0,0.3c-0.2-0.1-0.4-0.2-0.6-0.3c-4.7,0.4-9.4,0.9-14.2,1.3c0.4-4.6,0.6-7.4,0.7-8.3c3.9,2,7.9,4.1,13.5,7
	c0.2,0,0.4,0,0.6-0.1c0.6-6.2,1-9.7,1.5-14.5c2.3,4.4,4,7.7,6.1,11.6 M338.3,390.9c-12.5-4.2-24.9-8.5-38-12.9
	c1.7-2.6,2.9-4.5,5-7.7c-9,4.4-17,8.3-24.7,12.1c3.3-3.7,6.6-7.3,9.8-10.9c2.2-2.4,4.3-4.8,6.5-7.2c0,0,0,0,0,0
	c-0.1-0.1-0.3-0.1-0.4-0.2c-6.4,1.7-12.9,3.4-19.5,5.1c1.2-1.9,2.6-4.1,2.6-4.1c-4.5-5.6-11.2-10.1-11.6-15.2
	c-0.9-12.2-6.1-16.1-17.6-14.8c-8.1,0.9-16.3,0.8-21.5,1.1c3.5-4.4,8.6-10.9,12.8-16.3c2.5,14.8,5.7,15.7,33.6,7.8
	c0,7.8-2.8,17.6,0.8,23.5c3.7,6.1,13.3,8.8,20.4,12.9c0.3-0.1,0.6-0.2,0.9-0.2l0,0c-0.1,0.2-0.3,0.3-0.4,0.5
	c14.7,6.6,29.4,13.2,44.2,19.7C340,386.4,339.1,388.6,338.3,390.9z M348.1,383.1c7,23.7,13.3,44.9,19.7,66.2
	C347.5,421.6,342.5,404.3,348.1,383.1z M464.8,369.7c-11.9-5.8-23.5-11.5-35.2-17.2c-0.1-1.7-0.2-3.4-0.3-5.1
	c8.5-0.9,18-4.6,25.3-2.1C463.2,348.2,471.8,355.6,464.8,369.7z"/>
<path d="M239.2,277.6C239.2,277.6,239.3,277.6,239.2,277.6L239.2,277.6z"/>
<path class="st2" d="M239.2,277.6L239.2,277.6C239.3,277.6,239.3,277.6,239.2,277.6C239.3,277.6,239.3,277.6,239.2,277.6
	L239.2,277.6c0-0.1-0.1,0-0.2,0c0,0,0,0,0,0C239,277.7,239.1,277.7,239.2,277.6L239.2,277.6C239.2,277.6,239.2,277.6,239.2,277.6z"
	/>
<path class="st2" d="M239.3,277.6C239.3,277.6,239.3,277.6,239.3,277.6C239.3,277.6,239.3,277.6,239.3,277.6
	C239.3,277.6,239.2,277.6,239.3,277.6C239.2,277.6,239.2,277.6,239.3,277.6c-0.1,0.1-0.1,0.2-0.1,0.2c0,0,0,0,0,0c0,0,0,0,0,0
	C239.2,277.7,239.2,277.6,239.3,277.6z"/>
<path class="st2" d="M233.7,250.2c0.2-10-1.9-20.5,6.3-28.9C232.5,226.5,230.8,234.3,233.7,250.2z"/>
<path class="st2" d="M224.8,300.1c1.6-0.1,3.2-0.3,4.8-0.4c-1.9-1-3.3-1.7-4.6-2.4C225,297.6,224.9,298.5,224.8,300.1z"/>
</svg>
